<?xml version="1.0" standalone="no"?>
<!DOCTYPE svg PUBLIC "-//W3C//DTD SVG 20010904//EN"
 "http://www.w3.org/TR/2001/REC-SVG-20010904/DTD/svg10.dtd">
<svg version="1.0" xmlns="http://www.w3.org/2000/svg"
 width="1330.000000pt" height="259.000000pt" viewBox="0 0 1330.000000 259.000000"
 preserveAspectRatio="xMidYMid meet">

<g transform="translate(0.000000,259.000000) scale(0.100000,-0.100000)"
fill="#000000" stroke="none">
<path d="M1106 2049 c-265 -36 -449 -139 -581 -324 -64 -89 -135 -265 -135
-332 l0 -25 33 21 c17 12 82 48 142 81 90 49 115 69 137 103 71 111 206 211
328 243 80 20 271 15 339 -10 40 -15 51 -15 165 4 66 11 137 23 155 26 l35 6
-40 33 c-105 90 -309 173 -439 180 -38 2 -101 -1 -139 -6z m162 -35 c12 -8 22
-19 22 -23 0 -16 -31 -21 -50 -8 -37 22 -77 -25 -50 -58 14 -17 60 -20 60 -5
0 6 11 10 25 10 31 0 31 -7 3 -37 -48 -51 -138 -15 -138 54 0 66 74 105 128
67z m-210 -40 c43 -49 16 -111 -58 -133 -23 -7 -43 -11 -44 -9 -4 5 -36 136
-36 147 0 12 70 30 95 24 11 -3 30 -16 43 -29z m-253 -110 c24 -41 29 -45 56
-39 42 9 38 -16 -6 -39 -19 -11 -37 -17 -39 -15 -22 24 -75 122 -71 129 13 21
34 8 60 -36z"/>
<path d="M974 1959 c-3 -5 -2 -24 2 -44 7 -40 36 -48 54 -14 9 16 8 26 -3 43
-15 22 -43 30 -53 15z"/>
<path d="M1760 1770 c-338 -34 -968 -227 -1207 -370 -176 -106 -307 -215 -405
-338 -110 -138 -98 -144 33 -17 68 66 159 145 203 174 81 55 226 124 283 135
30 5 33 3 41 -27 5 -18 7 -37 5 -42 -2 -6 -34 -21 -71 -33 -37 -13 -112 -45
-167 -72 -178 -86 -301 -177 -359 -264 -39 -61 -57 -106 -24 -61 66 88 189
179 334 245 112 52 295 113 305 103 4 -4 10 -24 14 -45 6 -32 4 -37 -17 -43
-12 -4 -81 -27 -153 -52 -286 -99 -485 -224 -485 -304 0 -45 61 -103 127 -118
102 -24 253 -41 363 -41 l114 0 101 -50 c141 -71 229 -92 390 -93 135 -1 169
5 289 50 130 49 296 185 372 304 32 52 97 180 92 184 -2 1 -58 6 -124 9 l-122
7 -32 -58 c-66 -116 -212 -219 -370 -259 -180 -46 -375 16 -517 163 l-53 55
-111 -31 c-62 -17 -114 -33 -116 -35 -7 -7 54 -93 102 -145 l40 -44 -115 6
c-175 10 -280 45 -280 95 0 24 76 90 141 123 280 141 801 211 1397 187 180 -7
247 -6 257 2 18 15 42 89 55 170 13 87 13 258 -1 407 l-12 121 -30 6 c-38 8
-190 5 -287 -4z m-324 -231 c97 -18 89 -24 -29 -24 -134 0 -206 -15 -277 -58
-84 -50 -79 -61 21 -53 105 8 200 26 405 77 89 21 176 39 193 39 62 0 119 -21
155 -58 44 -44 47 -63 5 -28 -42 36 -93 56 -141 56 -22 0 -131 -22 -242 -49
-224 -55 -296 -67 -472 -80 -137 -10 -165 -21 -218 -83 -34 -41 -36 -42 -36
-17 0 15 10 39 21 54 18 22 19 29 8 36 -24 14 2 28 59 30 41 2 62 10 100 37
77 55 203 113 272 125 49 8 117 7 176 -4z m409 -100 c14 -14 8 -15 -59 -15
-65 1 -77 -2 -100 -23 -14 -14 -26 -30 -26 -37 0 -8 -11 -13 -27 -12 -16 0
-64 -9 -107 -21 -44 -11 -92 -21 -108 -21 -48 0 -31 18 30 30 104 21 177 42
205 58 33 20 35 32 5 25 -34 -8 -215 -59 -276 -78 -62 -19 -188 -76 -216 -98
-18 -13 -22 -12 -51 19 -56 59 -131 58 -191 -2 -19 -20 -37 -34 -39 -32 -1 1
3 19 11 39 20 49 59 69 132 69 50 0 66 -4 91 -25 l30 -26 113 44 c147 58 266
96 353 113 91 17 209 14 230 -7z m-6 -55 c45 -57 12 -134 -58 -134 -72 0 -109
84 -59 137 31 33 90 32 117 -3z m-754 -120 c30 -33 32 -67 4 -105 -15 -22 -28
-29 -54 -29 -47 0 -64 8 -80 41 -21 40 -19 66 10 94 34 35 88 34 120 -1z m755
-368 c0 -20 -19 -31 -32 -18 -6 6 -7 15 -4 21 10 16 36 13 36 -3z m-1140 -45
c0 -6 -13 -18 -30 -28 -23 -13 -28 -22 -24 -38 7 -20 7 -20 -15 0 l-22 19 33
28 c33 28 58 36 58 19z m1100 -15 c0 -15 -24 -28 -34 -19 -13 14 -5 33 14 33
11 0 20 -6 20 -14z m-1048 -43 c10 -9 18 -23 18 -31 0 -20 -29 -52 -47 -52
-15 0 -53 35 -53 50 0 14 37 50 52 50 6 0 20 -7 30 -17z m928 -3 c0 -5 -8 -11
-17 -13 -10 -3 -4 -5 14 -6 42 -1 52 -20 24 -43 -23 -18 -47 -16 -35 3 3 5 9
7 14 4 5 -3 12 0 15 6 5 7 -4 9 -26 7 -27 -2 -34 1 -37 16 -2 11 4 25 13 33
18 12 35 9 35 -7z m80 -4 c0 -15 -24 -28 -34 -19 -13 14 -5 33 14 33 11 0 20
-6 20 -14z m-940 -69 c1 -29 2 -30 14 -14 16 20 26 22 26 4 0 -19 -57 -71 -64
-58 -4 5 -4 23 0 38 l7 28 -22 -19 c-32 -29 -36 -12 -6 28 31 41 45 39 45 -7z
m809 18 c2 -11 11 -26 20 -33 14 -12 12 -13 -18 -8 -28 5 -32 4 -22 -8 7 -8 8
-17 3 -20 -6 -3 -22 10 -37 30 -26 34 -26 36 -9 50 26 19 58 13 63 -11z m-61
-61 c31 -30 34 -35 14 -31 -15 4 -27 -1 -37 -16 -17 -25 -20 -23 -34 27 -18
67 1 73 57 20z m-633 -6 c19 -28 0 -39 -19 -12 -8 11 -20 15 -30 11 -23 -9
-16 -41 9 -45 16 -2 17 -1 5 7 -8 5 -11 13 -7 17 11 11 41 -22 33 -35 -9 -15
-49 -14 -64 1 -15 15 -15 51 0 66 19 19 56 14 73 -10z m535 -8 c0 -5 -6 -10
-14 -10 -7 0 -19 -7 -26 -16 -11 -12 -10 -18 4 -32 17 -16 19 -16 33 6 17 25
33 29 33 9 0 -21 -36 -49 -56 -45 -10 2 -25 15 -33 30 -14 24 -14 28 3 47 20
22 56 29 56 11z m-422 -28 c13 -17 7 -52 -12 -64 -16 -11 -54 -10 -61 2 -4 6
-4 29 0 51 7 38 9 40 34 34 14 -3 32 -13 39 -23z m312 -2 c0 -5 -7 -10 -15
-10 -8 0 -15 -4 -15 -10 0 -5 7 -10 15 -10 8 0 15 -4 15 -10 0 -5 -4 -10 -10
-10 -5 0 -10 -5 -10 -11 0 -6 7 -9 15 -6 8 4 17 2 20 -3 6 -10 -42 -26 -51
-17 -3 2 -8 21 -11 42 -4 26 -2 40 8 46 19 12 39 11 39 -1z m-236 -6 c18 -7
22 -54 5 -54 -6 0 -8 -9 -4 -20 9 -27 -13 -26 -24 2 -6 18 -9 19 -14 5 -11
-28 -28 -20 -21 11 15 66 19 71 58 56z m154 -48 c-7 -25 -18 -46 -25 -46 -7 0
-22 18 -33 40 -24 47 -24 50 -6 50 8 0 17 -14 21 -30 7 -31 25 -32 25 -1 0 16
20 44 27 37 2 -2 -2 -24 -9 -50z m-90 -4 c2 -33 0 -42 -12 -42 -12 0 -16 11
-16 46 0 59 24 55 28 -4z"/>
<path d="M1744 1356 c-10 -27 1 -50 29 -57 34 -9 54 19 37 51 -12 23 -58 27
-66 6z"/>
<path d="M990 1235 c-26 -32 13 -81 48 -59 34 22 22 74 -18 74 -10 0 -23 -7
-30 -15z"/>
<path d="M713 783 c-16 -6 -17 -39 -2 -49 6 -3 18 1 27 10 14 14 14 18 2 30
-8 7 -21 12 -27 9z"/>
<path d="M1582 729 c2 -6 8 -10 13 -10 5 0 11 4 13 10 2 6 -4 11 -13 11 -9 0
-15 -5 -13 -11z"/>
<path d="M1530 664 c0 -8 5 -12 10 -9 6 4 8 11 5 16 -9 14 -15 11 -15 -7z"/>
<path d="M996 613 c-8 -19 8 -38 23 -29 16 10 13 46 -3 46 -8 0 -17 -8 -20
-17z"/>
<path d="M1095 600 c-3 -5 1 -10 9 -10 9 0 16 5 16 10 0 6 -4 10 -9 10 -6 0
-13 -4 -16 -10z"/>
<path d="M3550 1755 c-177 -50 -280 -199 -280 -405 0 -185 90 -333 238 -391
82 -33 252 -33 334 0 317 125 317 661 0 782 -75 28 -215 35 -292 14z m237
-190 c104 -80 112 -322 12 -417 -62 -59 -176 -64 -240 -11 -57 49 -74 96 -74
213 0 88 4 111 22 145 43 81 91 107 186 101 44 -3 66 -11 94 -31z"/>
<path d="M5323 1755 c-76 -21 -122 -47 -174 -100 -99 -99 -139 -254 -109 -416
23 -120 104 -229 208 -277 49 -23 70 -27 152 -27 110 0 163 19 223 78 l35 36
7 -50 7 -49 64 0 64 0 0 220 0 220 -185 0 -185 0 0 -75 0 -75 96 0 c94 0 95 0
89 -22 -12 -41 -40 -73 -85 -95 -115 -59 -244 2 -279 132 -36 133 19 291 116
331 71 30 172 3 206 -56 l18 -30 100 0 99 0 -6 28 c-17 71 -73 149 -136 188
-80 51 -219 67 -325 39z"/>
<path d="M10340 1754 c-158 -43 -263 -180 -277 -365 -24 -319 225 -530 520
-439 109 34 199 135 222 248 l7 32 -95 0 -95 0 -12 -35 c-15 -47 -61 -82 -115
-91 -130 -19 -211 58 -222 212 -14 178 69 293 204 282 63 -5 99 -29 128 -81
l20 -37 93 0 c106 0 107 0 72 93 -21 56 -84 128 -135 155 -82 42 -214 53 -315
26z"/>
<path d="M12727 1760 c-81 -21 -152 -72 -184 -134 -23 -44 -28 -134 -11 -176
38 -89 106 -134 299 -194 124 -38 152 -58 147 -102 -5 -46 -48 -69 -128 -69
-86 0 -118 21 -140 88 l-15 47 -99 0 -99 0 7 -41 c25 -154 122 -236 292 -247
241 -15 398 96 382 268 -11 109 -64 161 -216 211 -128 41 -219 85 -233 110
-29 55 29 105 113 97 55 -6 82 -26 100 -74 l12 -34 98 0 c93 0 98 1 98 21 0
80 -67 172 -152 209 -60 26 -205 36 -271 20z"/>
<path d="M2660 1350 l0 -400 295 0 295 0 0 85 0 85 -190 0 -190 0 0 315 0 315
-105 0 -105 0 0 -400z"/>
<path d="M4200 1350 l0 -400 101 0 101 0 -4 245 -4 245 26 -46 c14 -25 75
-134 136 -242 l111 -197 112 -3 111 -3 0 401 0 400 -101 0 -101 0 4 -253 4
-252 -41 80 c-22 44 -83 157 -135 252 l-95 172 -112 1 -113 0 0 -400z"/>
<path d="M6270 1351 l0 -401 189 0 c103 0 213 4 242 10 126 23 217 101 256
219 28 85 24 276 -6 354 -35 89 -77 137 -155 177 l-69 35 -228 3 -229 4 0
-401z m407 210 c67 -31 88 -81 88 -211 0 -90 -4 -111 -23 -148 -32 -59 -82
-81 -184 -82 l-78 0 0 230 0 230 78 0 c54 0 89 -6 119 -19z"/>
<path d="M7100 1351 l0 -401 105 0 105 0 0 150 0 150 86 0 c80 0 87 -2 113
-28 25 -25 29 -36 35 -126 11 -153 5 -146 136 -146 115 0 122 3 95 44 -9 14
-19 67 -25 140 -10 128 -20 154 -72 185 -27 17 -28 20 -11 25 29 9 89 77 102
115 23 69 8 159 -34 209 -14 16 -48 40 -77 53 -50 22 -66 24 -305 27 l-253 4
0 -401z m429 224 c48 -25 56 -86 17 -132 -23 -27 -28 -28 -130 -31 l-106 -4 0
91 0 91 95 0 c65 0 105 -5 124 -15z"/>
<path d="M7920 1350 l0 -400 105 0 105 0 0 400 0 400 -105 0 -105 0 0 -400z"/>
<path d="M8271 1548 c39 -112 101 -291 139 -398 l68 -195 97 0 97 0 138 395
138 395 -105 3 c-58 1 -107 1 -109 -1 -6 -6 -154 -538 -155 -556 -1 -21 1 -27
-64 214 -31 116 -65 240 -76 278 l-20 67 -109 0 -109 0 70 -202z"/>
<path d="M9010 1350 l0 -400 310 0 310 0 0 80 0 80 -205 0 -205 0 0 85 0 85
180 0 180 0 0 80 0 80 -180 0 -180 0 0 75 0 75 200 0 200 0 0 80 0 80 -305 0
-305 0 0 -400z"/>
<path d="M11125 1738 c-9 -23 -206 -571 -246 -680 l-38 -108 107 0 107 0 23
75 22 75 134 0 134 0 24 -72 25 -73 111 -3 112 -3 -45 128 c-25 70 -89 251
-143 401 l-96 272 -113 0 c-82 0 -115 -4 -118 -12z m195 -470 c0 -5 -39 -8
-86 -8 -64 0 -85 3 -81 13 2 6 22 69 43 140 l39 128 42 -133 c24 -73 43 -136
43 -140z"/>
<path d="M11720 1351 l0 -401 105 0 105 0 0 150 0 150 86 0 c80 0 87 -2 113
-28 25 -25 29 -36 35 -126 11 -153 5 -146 136 -146 115 0 122 3 95 44 -9 14
-19 67 -25 140 -10 128 -20 154 -72 185 -27 17 -28 20 -11 25 29 9 89 77 102
115 23 69 8 159 -34 209 -14 16 -48 40 -77 53 -50 22 -66 24 -305 27 l-253 4
0 -401z m429 224 c48 -25 56 -86 17 -132 -23 -27 -28 -28 -130 -31 l-106 -4 0
91 0 91 95 0 c65 0 105 -5 124 -15z"/>
</g>
</svg>
